{"title":"Midnight In Paris 2011 480p BDrip x246 300MB - cRcWoRLd","uid":7401348,"size":336568921,"categoryP":"video","categoryS":"movies","magnet":"?xt=urn:btih:86a0019eb81b29c4175b7d82c2b02f6325fc15c6&amp;dn=Midnight+In+Paris+2011+480p+BDrip+x246+300MB+-+cRcWoRLd&amp;tr=udp%3A%2F%2Ftracker.openbittorrent.com%3A80&amp;tr=udp%3A%2F%2Fopen.demonii.com%3A1337&amp;tr=udp%3A%2F%2Ftracker.coppersurfer.tk%3A6969&amp;tr=udp%3A%2F%2Fexodus.desync.com%3A6969","seeders":1,"leechers":0,"uploader":"CRCWORLD","files":11,"time":1341083280,"description":"Plot-\nA romantic comedy about a family traveling to the French capital for business. The party includes a young engaged couple forced to confront the illusion that a life different from their own is better.\n\nPG-13 - Comedy | Fantasy | Romance\n\n\nIMDB link- \n &lt;a href=&quot;\nhttp://www.imdb.com/title/tt1605783/&quot; rel=&quot;nofollow&quot; target=&quot;_NEW&quot;&gt;\nhttp://www.imdb.com/title/tt1605783/&lt;/a&gt;\n\nRATING- 8.0\n\nINFO-\n\nGeneral\nComplete name                    : Midnight In Paris 2011 480p BDrip x246 300MB - cRcWoRLd\nFormat                           : MPEG-4\nFormat profile                   : Base Media / Version 2\nCodec ID                         : mp42\nFile size                        : 317 MiB\nDuration                         : 1h 33mn\nOverall bit rate mode            : Variable\nOverall bit rate                 : 472 Kbps\nEncoded date                     : UTC 2011-10-25 06:15:17\n\nVideo\nID                               : 1\nFormat                           : AVC\nFormat/Info                      : Advanced Video Codec\nFormat profile                   : &lt;a class=&quot;__cf_email__&quot; href=&quot;/cdn-cgi/l/email-protection&quot; data-cfemail=&quot;3d705c54537d710e130d&quot;&gt;[email&amp;#160;protected]&lt;/a&gt;&lt;script cf-hash='f9e31' type=&quot;text/javascript&quot;&gt;\n/* &lt;![CDATA[ */!function(){try{var t=&quot;currentScript&quot;in document?document.currentScript:function(){for(var t=document.getElementsByTagName(&quot;script&quot;),e=t.length;e--;)if(t[e].getAttribute(&quot;cf-hash&quot;))return t[e]}();if(t&amp;&amp;t.previousSibling){var e,r,n,i,c=t.previousSibling,a=c.getAttribute(&quot;data-cfemail&quot;);if(a){for(e=&quot;&quot;,r=parseInt(a.substr(0,2),16),n=2;a.length-n;n+=2)i=parseInt(a.substr(n,2),16)^r,e+=String.fromCharCode(i);e=document.createTextNode(e),c.parentNode.replaceChild(e,c)}}}catch(u){}}();/* ]]&gt; */&lt;/script&gt;\nFormat settings, CABAC           : Yes\nFormat settings, ReFrames        : 4 frames\nCodec ID                         : avc1\nCodec ID/Info                    : Advanced Video Coding\nDuration                         : 1h 33mn\nBit rate mode                    : Variable\nBit rate                         : 404 Kbps\nWidth                            : 704 pixels\nHeight                           : 384 pixels\nDisplay aspect ratio             : 16:9\nFrame rate mode                  : Variable\nFrame rate                       : 23.976 fps\nMinimum frame rate               : 7.992 fps\nMaximum frame rate               : 23.981 fps\nColor space                      : YUV\nChroma subsampling               : 4:2:0\nBit depth                        : 8 bits\nScan type                        : Progressive\nBits/(Pixel*Frame)               : 0.062\nStream size                      : 272 MiB (86%)\nWriting library                  : x264\n\nAudio\nID                               : 2\nFormat                           : AAC\nFormat/Info                      : Advanced Audio Codec\nFormat profile                   : LC\nCodec ID                         : 40\nDuration                         : 1h 33mn\nBit rate mode                    : Variable\nBit rate                         : 64.0 Kbps\nMaximum bit rate                 : 129 Kbps\nChannel(s)                       : 2 channels\nChannel positions                : Front: L R\nSampling rate                    : 22.05 KHz\nCompression mode                 : Lossy\nStream size                      : 43.0 MiB (14%)\n\nSubtitles                        : English\n\nSample                           : Included\n\nTry the SAMPLE 1st.\n\nscreen- &lt;a href=&quot;\nhttp://img810.imageshack.us/img810/6008/vlcsnap2011102513h16m28.png&quot; rel=&quot;nofollow&quot; target=&quot;_NEW&quot;&gt;\nhttp://img810.imageshack.us/img810/6008/vlcsnap2011102513h16m28.png&lt;/a&gt; &lt;a href=&quot;\nhttp://img89.imageshack.us/img89/3640/vlcsnap2011102513h17m05.png&quot; rel=&quot;nofollow&quot; target=&quot;_NEW&quot;&gt;\nhttp://img89.imageshack.us/img89/3640/vlcsnap2011102513h17m05.png&lt;/a&gt; &lt;a href=&quot;\nhttp://img534.imageshack.us/img534/8118/vlcsnap2011102513h16m41.png&quot; rel=&quot;nofollow&quot; target=&quot;_NEW&quot;&gt;\nhttp://img534.imageshack.us/img534/8118/vlcsnap2011102513h16m41.png&lt;/a&gt;\n\nAll My 200MB Rips Are Uploaded for Promotional Purposes Only! If You Like It - Buy It!\n\nBEST For SMARTPHONES/IPAD/IPHONE/ANDROID Devices. For PC Use in VLC &amp; MPC.\n\nThe Quality of this movies according to the rip size. plz leave your feed-back at my FB page... I am alwayes there.\n\nNEW Rips will Come SOOOOON.\n\nMY FB PAGE-\n &lt;a href=&quot;\nhttp://fb.me/CRCWORLDtorrents&quot; rel=&quot;nofollow&quot; target=&quot;_NEW&quot;&gt;\nhttp://fb.me/CRCWORLDtorrents&lt;/a&gt;","torrent":{"xt":"urn:btih:86a0019eb81b29c4175b7d82c2b02f6325fc15c6","amp;dn":"Midnight+In+Paris+2011+480p+BDrip+x246+300MB+-+cRcWoRLd","amp;tr":["udp%3A%2F%2Ftracker.openbittorrent.com%3A80","udp%3A%2F%2Fopen.demonii.com%3A1337","udp%3A%2F%2Ftracker.coppersurfer.tk%3A6969","udp%3A%2F%2Fexodus.desync.com%3A6969"],"infoHash":"86a0019eb81b29c4175b7d82c2b02f6325fc15c6","infoHashBuffer":{"type":"Buffer","data":[134,160,1,158,184,27,41,196,23,91,125,130,194,176,47,99,37,252,21,198]},"announce":[],"urlList":[]}}